<?xml version="1.0" ?><svg enable-background="new 0 0 512 512" id="Layer_1" version="1.1" viewBox="0 0 512 512" xml:space="preserve" xmlns="http://www.w3.org/2000/svg" xmlns:xlink="http://www.w3.org/1999/xlink"><g><g><linearGradient gradientUnits="userSpaceOnUse" id="SVGID_1_" x1="-0.0000027" x2="512" y1="256" y2="256"><stop offset="0" style="stop-color:#33B49D"/><stop offset="1" style="stop-color:#00A185"/></linearGradient><circle cx="256" cy="256" fill="url(#SVGID_1_)" r="256"/><linearGradient gradientUnits="userSpaceOnUse" id="SVGID_2_" x1="42.6666641" x2="469.3333435" y1="256.0005188" y2="256.0005188"><stop offset="0" style="stop-color:#00A185"/><stop offset="1" style="stop-color:#33B49D"/></linearGradient><path d="M256,469.3338623c-117.6315002,0-213.3333435-95.7023926-213.3333435-213.3333435    c0-117.6314545,95.7018356-213.333313,213.3333435-213.333313c117.6357117,0,213.3333435,95.7018661,213.3333435,213.333313    C469.3333435,373.6314697,373.6357117,469.3338623,256,469.3338623z" fill="url(#SVGID_2_)"/></g><g><rect height="28.7498665" opacity="0.3" width="240" x="144" y="216.5445404"/><path d="M383.9247742,206.5445404c-0.4031982-13.4544067-11.3728027-24.2554779-24.9248047-24.2554779h-190    c-13.552002,0-24.5221252,10.8010712-24.9253082,24.2554779H383.9247742z" opacity="0.3"/><path d="M144,255.2944031v65.4159851c0,13.8074646,11.1925049,25,24.9999695,25h190    c13.8069458,0,25.0000305-11.1925354,25.0000305-25v-65.4159851H144z M323.0351563,289.1615906h10v10h-10V289.1615906z     M298.0351563,289.1615906h10v10h-10V289.1615906z M358.0351563,322.5210571H255.5354309v-10h102.4997253V322.5210571z     M358.0351563,299.1615906h-10v-10h10V299.1615906z" opacity="0.3"/></g><g><rect fill="#FFFFFF" height="28.7498665" width="240" x="136" y="208.5445404"/><path d="M375.9247742,198.5445251c-0.4031982-13.4543915-11.3728027-24.2554626-24.9248047-24.2554626h-190    c-13.552002,0-24.5221252,10.8010712-24.9253082,24.2554626H375.9247742z" fill="#FFFFFF"/><path d="M136,247.2944031v65.4159851c0,13.8074646,11.1925049,25,24.9999695,25h190    c13.8069458,0,25.0000305-11.1925354,25.0000305-25v-65.4159851H136z M315.0351563,281.1615906h10v10h-10V281.1615906z     M290.0351563,281.1615906h10v10h-10V281.1615906z M350.0351563,314.5210571H247.5354309v-10h102.4997253V314.5210571z     M350.0351563,291.1615906h-10v-10h10V291.1615906z" fill="#FFFFFF"/></g></g></svg>