<?xml version="1.0" ?><!DOCTYPE svg  PUBLIC '-//W3C//DTD SVG 1.1//EN'  'http://www.w3.org/Graphics/SVG/1.1/DTD/svg11.dtd'><svg enable-background="new 0 0 96 96" height="96px" id="Layer_1" version="1.1" viewBox="0 0 96 96" width="96px" xml:space="preserve" xmlns="http://www.w3.org/2000/svg" xmlns:xlink="http://www.w3.org/1999/xlink"><g><path clip-rule="evenodd" d="M48,94.871C22.113,94.871,1.129,73.887,1.129,48   C1.129,22.114,22.113,1.129,48,1.129c25.886,0,46.871,20.985,46.871,46.871C94.871,73.887,73.886,94.871,48,94.871" fill="#50A7A0" fill-rule="evenodd"/><path clip-rule="evenodd" d="M68.608,21.823l26.259,26.145l0.002,0.152v0.005v0.005v0.005   c-0.067,24.147-18.396,43.999-41.902,46.475L34.115,75.706c0.034,0.019,0.07,0.036,0.107,0.052c0.119,0.05,0.249,0.077,0.384,0.077   h6.868c0.132,0,0.259-0.026,0.373-0.075v-0.001c0.122-0.051,0.229-0.124,0.317-0.213v-0.001c0.103-0.103,0.187-0.229,0.248-0.368   c0.059-0.135,0.097-0.283,0.109-0.438l0.327-3.869l0.028-0.33l-0.326-0.066c-0.979-0.2-1.939-0.461-2.875-0.778   c-0.944-0.32-1.865-0.7-2.756-1.134l-0.158-0.077l-0.07-0.071l-0.001-0.001l-0.005-0.005c-0.132-0.129-0.262-0.259-0.391-0.391   l-0.01-0.01c-0.13-0.127-0.258-0.255-0.385-0.385l-0.01-0.01c-0.13-0.127-0.259-0.255-0.385-0.385l-0.01-0.011   c-0.13-0.126-0.259-0.255-0.386-0.385l-0.01-0.01c-0.13-0.127-0.258-0.255-0.385-0.385l-0.01-0.01   c-0.13-0.127-0.259-0.255-0.385-0.385l-0.01-0.011c-0.13-0.126-0.259-0.255-0.386-0.385l-0.01-0.01   c-0.13-0.127-0.258-0.255-0.385-0.385l-0.01-0.01c-0.13-0.127-0.259-0.256-0.385-0.385l-0.006-0.006l-0.001-0.002   c-0.129-0.125-0.256-0.253-0.382-0.381l-0.007-0.007l-0.001-0.002c-0.135-0.131-0.268-0.265-0.399-0.398   c-0.133-0.13-0.265-0.262-0.394-0.395c-0.133-0.129-0.265-0.261-0.394-0.394c0.306,0.299,0.62,0.589,0.943,0.87l0.058,0.051   l0.066,0.022c0.077,0.026,0.146,0.065,0.202,0.112l-0.001,0.001c0.06,0.05,0.11,0.111,0.147,0.179l0.034,0.065l0.058,0.046   c0.674,0.55,1.383,1.064,2.123,1.537c0.734,0.47,1.497,0.897,2.282,1.28l0,0c1.51,0.735,3.117,1.308,4.799,1.692   c1.634,0.375,3.333,0.573,5.074,0.573c1.389,0,2.749-0.126,4.069-0.366l0.716,6.046c0.073,0.619,0.511,1.134,1.134,1.134h7.095   c0.467,0,0.815-0.385,0.851-0.851l0.877-11.479l0.078-0.023l0.063-0.054c0.179-0.157,0.365-0.326,0.558-0.506   c0.208-0.194,0.389-0.368,0.54-0.52c5.402-5.402,7.687-13.127,6.15-20.579c-0.313-1.523-0.781-2.991-1.386-4.384   c-0.597-1.377-1.326-2.682-2.17-3.895c-0.854-1.228-1.828-2.369-2.905-3.406l-0.16-0.154l-0.212,0.067   c-0.18,0.058-0.36,0.109-0.541,0.156c-0.181,0.046-0.365,0.089-0.551,0.126c-0.558,0.111-1.12,0.177-1.679,0.196   c-0.568,0.02-1.137-0.007-1.694-0.079h-0.001c-0.169-0.021-0.314-0.11-0.412-0.235c-0.098-0.127-0.147-0.29-0.126-0.46v-0.002   c0.021-0.169,0.109-0.314,0.235-0.411c0.126-0.098,0.29-0.148,0.46-0.127c0.492,0.063,0.991,0.087,1.49,0.07   c0.5-0.018,0.997-0.074,1.481-0.171v-0.002c0.473-0.095,0.942-0.229,1.402-0.4c0.453-0.169,0.896-0.376,1.327-0.621l0.012-0.007   l0.037-0.023h0.001c0.68-0.394,1.292-0.86,1.829-1.385c0.553-0.54,1.029-1.143,1.421-1.789c0.344-0.565,0.622-1.161,0.833-1.773   c0.213-0.618,0.36-1.26,0.438-1.912L68.608,21.823z" fill="#36807A" fill-rule="evenodd"/><polygon clip-rule="evenodd" fill="#36807A" fill-rule="evenodd" points="56.045,25.55 57.672,23.218 50.032,15.539 50.035,24.547    51.384,24.104  "/><path d="   M56.045,25.55c0.826-1.657,2.135-3.099,3.858-4.094c3.002-1.733,6.539-1.692,9.401-0.205c-0.145,3.221-1.878,6.304-4.879,8.037   c-1.93,1.114-4.082,1.495-6.132,1.231" fill="none" stroke="#FFFFFF" stroke-linecap="round" stroke-linejoin="round" stroke-miterlimit="2.6131" stroke-width="1.9998"/><path d="   M38.788,25.558c-0.825-1.66-2.133-3.102-3.857-4.097c-3.002-1.733-6.539-1.692-9.401-0.205c0.144,3.221,1.878,6.304,4.879,8.037   c1.93,1.114,4.081,1.496,6.131,1.231" fill="none" stroke="#FFFFFF" stroke-linecap="round" stroke-linejoin="round" stroke-miterlimit="2.6131" stroke-width="1.9998"/><path d="   M51.174,24.202c1.691,0.274,3.324,0.736,4.872,1.358" fill="none" stroke="#FFFFFF" stroke-linecap="round" stroke-linejoin="round" stroke-miterlimit="2.6131" stroke-width="1.9998"/><path d="   M38.789,25.548c1.583-0.633,3.221-1.087,4.898-1.355" fill="none" stroke="#FFFFFF" stroke-linecap="round" stroke-linejoin="round" stroke-miterlimit="2.6131" stroke-width="1.9998"/><path d="   M63.246,30.154c4.519,4.23,7.342,10.251,7.342,16.928c0,12.805-10.38,23.185-23.187,23.185c-12.805,0-23.185-10.38-23.185-23.185   c0-6.662,2.81-12.669,7.307-16.895" fill="none" stroke="#FFFFFF" stroke-linecap="round" stroke-linejoin="round" stroke-miterlimit="2.6131" stroke-width="1.9998"/><path d="   M47.405,45.725c5.444,0,9.859,3.056,9.859,6.829c0,3.772-4.415,6.831-9.859,6.831c-5.446,0-9.86-3.059-9.86-6.831   C37.545,48.78,41.959,45.725,47.405,45.725" fill="none" stroke="#FFFFFF" stroke-linecap="round" stroke-linejoin="round" stroke-miterlimit="2.6131" stroke-width="1.9998"/><path d="   M43.912,51.044c0.837,0,1.516,0.678,1.516,1.516c0,0.835-0.679,1.513-1.516,1.513c-0.836,0-1.515-0.678-1.515-1.513   C42.397,51.722,43.076,51.044,43.912,51.044" fill="none" stroke="#FFFFFF" stroke-linecap="round" stroke-linejoin="round" stroke-miterlimit="2.6131" stroke-width="1.9998"/><path d="   M50.888,51.044c0.837,0,1.516,0.678,1.516,1.516c0,0.835-0.679,1.513-1.516,1.513s-1.515-0.678-1.515-1.513   C49.373,51.722,50.051,51.044,50.888,51.044" fill="none" stroke="#FFFFFF" stroke-linecap="round" stroke-linejoin="round" stroke-miterlimit="2.6131" stroke-width="1.9998"/><path d="   M51,39.061c0.516,0,0.935,0.419,0.935,0.934c0,0.518-0.419,0.937-0.935,0.937c-0.519,0-0.936-0.419-0.936-0.937   C50.064,39.479,50.481,39.061,51,39.061" fill="none" stroke="#FFFFFF" stroke-linecap="round" stroke-linejoin="round" stroke-miterlimit="2.6131" stroke-width="1.9998"/><path d="   M43.805,39.061c0.517,0,0.936,0.419,0.936,0.934c0,0.518-0.419,0.937-0.936,0.937s-0.936-0.419-0.936-0.937   C42.869,39.479,43.288,39.061,43.805,39.061" fill="none" stroke="#FFFFFF" stroke-linecap="round" stroke-linejoin="round" stroke-miterlimit="2.6131" stroke-width="1.9998"/><path d="   M52.814,62.166c-1.364,1.391-3.299,2.221-5.413,2.173c-1.94-0.046-3.726-0.738-5.056-1.878" fill="none" stroke="#FFFFFF" stroke-linecap="round" stroke-linejoin="round" stroke-miterlimit="2.6131" stroke-width="1.9998"/><line fill="none" stroke="#FFFFFF" stroke-linecap="round" stroke-linejoin="round" stroke-miterlimit="2.6131" stroke-width="1.9998" x1="43.609" x2="43.213" y1="70.046" y2="74.721"/><path d="   M43.213,74.721c-0.076,0.911-0.755,1.67-1.669,1.67" fill="none" stroke="#FFFFFF" stroke-linecap="round" stroke-linejoin="round" stroke-miterlimit="2.6131" stroke-width="1.9998"/><line fill="none" stroke="#FFFFFF" stroke-linecap="round" stroke-linejoin="round" stroke-miterlimit="2.6131" stroke-width="1.9998" x1="41.544" x2="34.688" y1="76.391" y2="76.391"/><path d="   M34.688,76.391c-0.91,0-1.622-0.753-1.669-1.67" fill="none" stroke="#FFFFFF" stroke-linecap="round" stroke-linejoin="round" stroke-miterlimit="2.6131" stroke-width="1.9998"/><line fill="none" stroke="#FFFFFF" stroke-linecap="round" stroke-linejoin="round" stroke-miterlimit="2.6131" stroke-width="1.9998" x1="33.019" x2="32.508" y1="74.721" y2="64.757"/><line fill="none" stroke="#FFFFFF" stroke-linecap="round" stroke-linejoin="round" stroke-miterlimit="2.6131" stroke-width="1.9998" x1="51.194" x2="51.591" y1="70.046" y2="74.721"/><path d="   M51.591,74.721c0.077,0.909,0.754,1.67,1.669,1.67" fill="none" stroke="#FFFFFF" stroke-linecap="round" stroke-linejoin="round" stroke-miterlimit="2.6131" stroke-width="1.9998"/><line fill="none" stroke="#FFFFFF" stroke-linecap="round" stroke-linejoin="round" stroke-miterlimit="2.6131" stroke-width="1.9998" x1="53.26" x2="60.116" y1="76.391" y2="76.391"/><path d="   M60.116,76.391c0.915,0,1.623-0.753,1.669-1.67" fill="none" stroke="#FFFFFF" stroke-linecap="round" stroke-linejoin="round" stroke-miterlimit="2.6131" stroke-width="1.9998"/><line fill="none" stroke="#FFFFFF" stroke-linecap="round" stroke-linejoin="round" stroke-miterlimit="2.6131" stroke-width="1.9998" x1="61.785" x2="62.298" y1="74.721" y2="65.255"/><line fill="none" stroke="#FFFFFF" stroke-linecap="round" stroke-linejoin="round" stroke-miterlimit="2.6131" stroke-width="1.9998" x1="51.117" x2="51.117" y1="24.25" y2="25.405"/><path d="   M51.117,25.405c0,1.465-1.476,2.665-3.276,2.665" fill="none" stroke="#FFFFFF" stroke-linecap="round" stroke-linejoin="round" stroke-miterlimit="2.6131" stroke-width="1.9998"/><line fill="none" stroke="#FFFFFF" stroke-linecap="round" stroke-linejoin="round" stroke-miterlimit="2.6131" stroke-width="1.9998" x1="47.841" x2="46.966" y1="28.07" y2="28.07"/><path d="   M46.966,28.07c-1.801,0-3.276-1.2-3.276-2.665" fill="none" stroke="#FFFFFF" stroke-linecap="round" stroke-linejoin="round" stroke-miterlimit="2.6131" stroke-width="1.9998"/><line fill="none" stroke="#FFFFFF" stroke-linecap="round" stroke-linejoin="round" stroke-miterlimit="2.6131" stroke-width="1.9998" x1="43.689" x2="43.689" y1="25.405" y2="24.25"/><line fill="none" stroke="#FFFFFF" stroke-linecap="round" stroke-linejoin="round" stroke-miterlimit="2.6131" stroke-width="1.9998" x1="49.563" x2="49.563" y1="27.629" y2="16.189"/><path d="   M49.563,16.189c0-0.505-0.507-1.185-1.125-1.185" fill="none" stroke="#FFFFFF" stroke-linecap="round" stroke-linejoin="round" stroke-miterlimit="2.6131" stroke-width="1.9998"/><line fill="none" stroke="#FFFFFF" stroke-linecap="round" stroke-linejoin="round" stroke-miterlimit="2.6131" stroke-width="1.9998" x1="48.438" x2="46.371" y1="15.005" y2="15.005"/><path d="   M46.371,15.005c-0.619,0-1.127,0.68-1.127,1.185" fill="none" stroke="#FFFFFF" stroke-linecap="round" stroke-linejoin="round" stroke-miterlimit="2.6131" stroke-width="1.9998"/><line fill="none" stroke="#FFFFFF" stroke-linecap="round" stroke-linejoin="round" stroke-miterlimit="2.6131" stroke-width="1.9998" x1="45.244" x2="45.244" y1="16.189" y2="27.629"/></g></svg>