<?xml version="1.0" ?><svg enable-background="new 0 0 512 512" id="Layer_1" version="1.1" viewBox="0 0 512 512" xml:space="preserve" xmlns="http://www.w3.org/2000/svg" xmlns:xlink="http://www.w3.org/1999/xlink"><g><g><linearGradient gradientUnits="userSpaceOnUse" id="SVGID_1_" x1="-0.0000027" x2="512" y1="256" y2="256"><stop offset="0" style="stop-color:#8DC63F"/><stop offset="1" style="stop-color:#76B83F"/></linearGradient><circle cx="256" cy="256" fill="url(#SVGID_1_)" r="256"/><linearGradient gradientUnits="userSpaceOnUse" id="SVGID_2_" x1="42.6666641" x2="469.3333435" y1="256.0005188" y2="256.0005188"><stop offset="0" style="stop-color:#76B83F"/><stop offset="1" style="stop-color:#8DC63F"/></linearGradient><path d="M256,469.3338623c-117.6315002,0-213.3333435-95.7023926-213.3333435-213.3333435    c0-117.6314545,95.7018356-213.333313,213.3333435-213.333313c117.6357117,0,213.3333435,95.7018661,213.3333435,213.333313    C469.3333435,373.6314697,373.6357117,469.3338623,256,469.3338623z" fill="url(#SVGID_2_)"/></g><g><rect height="37.7578659" opacity="0.3" width="193.4384003" x="167.2805023" y="346.2421265"/><path d="M328.9151611,257.0250549v-48.1125183C328.9151611,173.1199951,299.795166,144,263.9978333,144    c-35.7925262,0-64.9125366,29.1199951-64.9125366,64.9125366v48.1125183h-31.8047943v79.4208069h193.4384003v-79.4208069    H328.9151611z M208.8815765,208.9125366c0-30.3919983,24.7242584-55.116806,55.1162567-55.116806    s55.1210632,24.7248077,55.1210632,55.116806v48.1125183H208.8815765V208.9125366z M244.405838,304.8266602h-9.7957306v-9.7957153    h9.7957306V304.8266602z M268.8959961,304.8266602h-9.7957458v-9.7957153h9.7957458V304.8266602z M293.3855591,304.8266602    h-9.7957153v-9.7957153h9.7957153V304.8266602z" opacity="0.3"/></g><g><rect fill="#FFFFFF" height="37.7578659" width="193.4384003" x="159.2805023" y="338.2421265"/><path d="M320.9151611,249.0250702v-48.1125336C320.9151611,165.1199951,291.795166,136,255.9978333,136    c-35.7925262,0-64.9125366,29.1199951-64.9125366,64.9125366v48.1125336h-31.8047943v79.4207916h193.4384003v-79.4207916    H320.9151611z M200.8815765,200.9125366c0-30.3919983,24.7242584-55.116806,55.1162567-55.116806    s55.1210632,24.7248077,55.1210632,55.116806v48.1125336H200.8815765V200.9125366z M236.405838,296.8266602h-9.7957306v-9.7957153    h9.7957306V296.8266602z M260.8959961,296.8266602h-9.7957611v-9.7957153h9.7957611V296.8266602z M285.3855591,296.8266602    h-9.7957153v-9.7957153h9.7957153V296.8266602z" fill="#FFFFFF"/></g></g></svg>