<?xml version="1.0" ?><svg viewBox="0 0 20.22 20" xmlns="http://www.w3.org/2000/svg"><defs><style>.cls-1{fill:#8e8e8e;}.cls-2{fill:none;stroke:#8e8e8e;stroke-miterlimit:10;}</style></defs><title/><g data-name="Layer 2" id="Layer_2"><g data-name="Layer 1" id="Layer_1-2"><path class="cls-1" d="M10.5,1a5,5,0,1,1-5,5,5,5,0,0,1,5-5m0-1a6,6,0,1,0,6,6,6,6,0,0,0-6-6Z"/><path class="cls-2" d="M.5,20c0-3.31,4.48-6,10-6"/><path class="cls-1" d="M19.07,15.85a.52.52,0,0,1,.2-.41,7.69,7.69,0,0,0,.93-.8l-.36-.87-1.22.13a.53.53,0,0,1-.43-.15h0a.52.52,0,0,1-.15-.43,7.73,7.73,0,0,0,.1-1.23l-.87-.36a7.37,7.37,0,0,0-.77.94.52.52,0,0,1-.42.21h0a.53.53,0,0,1-.4-.19l-.8-.95L14,12.1l.13,1.22a.53.53,0,0,1-.15.43h0a.52.52,0,0,1-.43.15,7.62,7.62,0,0,0-1.23-.1l-.36.87a7.27,7.27,0,0,0,.94.77.52.52,0,0,1,.21.42h0a.52.52,0,0,1-.2.41,8,8,0,0,0-.94.8l.36.87a7.27,7.27,0,0,0,1.21-.12.53.53,0,0,1,.6.58,7.81,7.81,0,0,0-.1,1.23l.87.36a7.56,7.56,0,0,0,.77-.94.52.52,0,0,1,.42-.21h0a.52.52,0,0,1,.42.2,7.63,7.63,0,0,0,.8.93l.87-.36a7.38,7.38,0,0,0-.12-1.21A.52.52,0,0,1,18.2,18h0a.52.52,0,0,1,.43-.15,7.61,7.61,0,0,0,1.22.1l.36-.87a7.25,7.25,0,0,0-.94-.77.53.53,0,0,1-.21-.42Zm-2.2,1.91A2.06,2.06,0,1,1,18,15.07,2.06,2.06,0,0,1,16.87,17.76Z"/></g></g></svg>